# xmcd
#
# Track frame offsets: 
#        150
#        16629
#        30416
#        46089
#        61832
#        74813
#        91502
#        109440
#        123788
#        138980
#        155752
#
# Disc length: 2321 seconds
#
# Revision: 1
# Processed by: cddbd v1.5.2PL0 Copyright (c) Steve Scherf et al.
# Submitted via: ExactAudioCopy v1.0b4
#
DISCID=86090f0b
DTITLE=John Nemeth - Feelin' Freaky
DYEAR=2017
DGENRE=Blues
TTITLE0=Under The Gun
TTITLE1=S.T.O.N.E.D.
TTITLE2=Feelin' Freaky
TTITLE3=Rainy Day
TTITLE4=You Really Do Want That Woman
TTITLE5=My Sweet Love
TTITLE6=Gave Up On You
TTITLE7=Get Offa Dat Butt
TTITLE8=I'm Funkin' Out
TTITLE9=Kool Aid Pickle
TTITLE10=Long Black Cadillac
EXTD=
EXTT0=
EXTT1=
EXTT2=
EXTT3=
EXTT4=
EXTT5=
EXTT6=
EXTT7=
EXTT8=
EXTT9=
EXTT10=
PLAYORDER=
